<?xml version="1.0" encoding="UTF-8"?>
<!-- Created with Inkscape (http://www.inkscape.org/) -->
<svg width="256" height="256" version="1.1" viewBox="0 0 67.733 67.733" xmlns="http://www.w3.org/2000/svg" xmlns:xlink="http://www.w3.org/1999/xlink">
 <defs>
  <linearGradient id="linearGradient25096" x1="148.93" x2="148.97" y1="82.992" y2="73.637" gradientTransform="matrix(1.05 0 0 1.05 -5.8951 -3.3351)" gradientUnits="userSpaceOnUse">
   <stop stop-color="#c8c8c8" offset="0"/>
   <stop stop-color="#fff" stop-opacity=".98444" offset="1"/>
  </linearGradient>
  <filter id="filter31649" x="-.024331" y="-.024331" width="1.0487" height="1.0487" color-interpolation-filters="sRGB">
   <feGaussianBlur result="blur" stdDeviation="0.05 0.05"/>
  </filter>
  <filter id="filter31911" x="-.074264" y="-.074264" width="1.1485" height="1.1485" color-interpolation-filters="sRGB">
   <feGaussianBlur result="blur" stdDeviation="0.35 0.35"/>
  </filter>
 </defs>
 <g stroke-width=".26458"></g>
 <g transform="matrix(4.9231 0 0 4.9231 -702.89 -354.47)">
  <circle transform="matrix(1.0591 0 0 1.0591 -10.22 -4.1482)" cx="150.96" cy="78.397" r="5.6555" fill="#f00" fill-opacity=".98444" filter="url(#filter31911)" stroke-width=".26458"/>
  <g transform="translate(-.51362 1.0059)">
   <g transform="translate(-.46778 -1.0206)" fill-rule="evenodd" stroke-width=".29427">
    <circle cx="150.64" cy="78.895" r="5.25" fill="url(#linearGradient25096)"/>
    <path d="m150.64 73.645a5.25 5.25 0 0 0-5.2498 5.2498 5.25 5.25 0 0 0 5.2498 5.2503 5.25 5.25 0 0 0 5.2503-5.2503 5.25 5.25 0 0 0-5.2503-5.2498zm0 0.62477a4.625 4.625 0 0 1 4.625 4.625 4.625 4.625 0 0 1-4.625 4.625 4.625 4.625 0 0 1-4.625-4.625 4.625 4.625 0 0 1 4.625-4.625z" fill="#fff"/>
   </g>
   <g fill-opacity=".98444" stroke-width=".26458">
    <g transform="translate(20.004 .32811)" fill="#fff" filter="url(#filter31649)">
     <path d="m127.7 75.777c-5e-3 -0.05057 0.0566-0.14135 0.0566-0.14135l0.13122-0.13121 0.13121-0.13121s0.0934-0.06627 0.1458-0.06109c0.0691 0.0069 0.17247 0.11694 0.17247 0.11694l4.1724 4.1725s0.12089 0.11213 0.12204 0.18636c1e-3 0.06629-0.10381 0.16957-0.10381 0.16957l-0.16885 0.16885s-0.10402 0.10119-0.17975 0.10381c-0.0815 0.0029-0.19439-0.10377-0.19439-0.10377l-4.1724-4.1725s-0.10606-0.10728-0.11256-0.17686z" color="#000000" style="-inkscape-stroke:none"/>
     <path d="m132.16 75.312c0.0505-5e-3 0.14135 0.0566 0.14135 0.0566l0.26242 0.26242s0.0663 0.0934 0.0611 0.1458c-7e-3 0.06911-0.11692 0.1725-0.11692 0.1725l-4.1725 4.1724s-0.11226 0.12075-0.18637 0.12203c-0.0663 9.76e-4 -0.16957-0.10381-0.16957-0.10381l-0.16885-0.16885s-0.10119-0.10402-0.1038-0.17975c-3e-3 -0.08151 0.10375-0.1944 0.10375-0.1944l4.1725-4.1724s0.10729-0.10606 0.17689-0.11254z" color="#000000" style="-inkscape-stroke:none"/>
    </g>
    <g transform="translate(20.004 .025919)" fill="#f00" filter="url(#filter31649)">
     <path d="m127.7 75.777c-5e-3 -0.05057 0.0566-0.14135 0.0566-0.14135l0.13122-0.13121 0.13121-0.13121s0.0934-0.06627 0.1458-0.06109c0.0691 0.0069 0.17247 0.11694 0.17247 0.11694l4.1724 4.1725s0.12089 0.11213 0.12204 0.18636c1e-3 0.06629-0.10381 0.16957-0.10381 0.16957l-0.16885 0.16885s-0.10402 0.10119-0.17975 0.10381c-0.0815 0.0029-0.19439-0.10377-0.19439-0.10377l-4.1724-4.1725s-0.10606-0.10728-0.11256-0.17686z" color="#000000" style="-inkscape-stroke:none"/>
     <path d="m132.16 75.312c0.0505-5e-3 0.14135 0.0566 0.14135 0.0566l0.26242 0.26242s0.0663 0.0934 0.0611 0.1458c-7e-3 0.06911-0.11692 0.1725-0.11692 0.1725l-4.1725 4.1724s-0.11226 0.12075-0.18637 0.12203c-0.0663 9.76e-4 -0.16957-0.10381-0.16957-0.10381l-0.16885-0.16885s-0.10119-0.10402-0.1038-0.17975c-3e-3 -0.08151 0.10375-0.1944 0.10375-0.1944l4.1725-4.1724s0.10729-0.10606 0.17689-0.11254z" color="#000000" style="-inkscape-stroke:none"/>
    </g>
   </g>
  </g>
 </g>
</svg>
